<svg width="24" height="25" viewBox="0 0 24 25" fill="none" xmlns="http://www.w3.org/2000/svg">
<path d="M12.9365 18.8537L23.6166 8.17338C23.8638 7.92635 24 7.5966 24 7.24499C24 6.89339 23.8638 6.56363 23.6166 6.31661L22.8303 5.53008C22.3179 5.01828 21.4851 5.01828 20.9735 5.53008L12.005 14.4986L3.02651 5.52013C2.77929 5.27311 2.44974 5.13672 2.09832 5.13672C1.74652 5.13672 1.41696 5.27311 1.16955 5.52013L0.383411 6.30666C0.136194 6.55388 0 6.88344 0 7.23504C0 7.58665 0.136194 7.9164 0.383411 8.16343L11.0733 18.8537C11.3213 19.1013 11.6524 19.2373 12.0044 19.2365C12.3578 19.2373 12.6887 19.1013 12.9365 18.8537Z" fill="white"/>
</svg>
