<svg width="61" height="61" viewBox="0 0 61 61" fill="none" xmlns="http://www.w3.org/2000/svg">
<g clip-path="url(#clip0_916_599)">
<path d="M60.5624 17.9292C60.4218 14.7412 59.9062 12.5495 59.1677 10.6503C58.4059 8.63435 57.2338 6.82949 55.6981 5.32911C54.1977 3.80537 52.381 2.62137 50.3884 1.8714C48.4783 1.13289 46.298 0.617343 43.1099 0.476782C39.8981 0.324317 38.8785 0.289062 30.7324 0.289062C22.5863 0.289062 21.5666 0.324317 18.3667 0.464878C15.1787 0.605439 12.9869 1.12144 11.0882 1.8595C9.07183 2.62137 7.26698 3.79347 5.7666 5.32911C4.24287 6.82949 3.05932 8.64626 2.3089 10.6388C1.57038 12.5495 1.05484 14.7293 0.914282 17.9173C0.761817 21.1292 0.726562 22.1488 0.726562 30.2949C0.726562 38.441 0.761817 39.4607 0.902378 42.6606C1.04294 45.8487 1.55894 48.0404 2.29745 49.9396C3.05932 51.9555 4.24287 53.7604 5.7666 55.2607C7.26698 56.7845 9.08374 57.9685 11.0763 58.7184C12.9869 59.457 15.1668 59.9725 18.3552 60.1131C21.5547 60.2541 22.5748 60.2889 30.7209 60.2889C38.867 60.2889 39.8867 60.2541 43.0866 60.1131C46.2746 59.9725 48.4664 59.457 50.3651 58.7184C54.3974 57.1595 57.5854 53.9714 59.1444 49.9396C59.8824 48.0289 60.3984 45.8487 60.539 42.6606C60.6796 39.4607 60.7148 38.441 60.7148 30.2949C60.7148 22.1488 60.7029 21.1292 60.5624 17.9292ZM55.1592 42.4262C55.0301 45.3565 54.5379 46.9388 54.1277 47.9937C53.1195 50.6076 51.045 52.6821 48.4311 53.6903C47.3762 54.1005 45.7824 54.5927 42.8636 54.7214C39.6989 54.8624 38.7498 54.8972 30.7443 54.8972C22.7387 54.8972 21.7777 54.8624 18.6245 54.7214C15.6942 54.5927 14.1119 54.1005 13.057 53.6903C11.7562 53.2096 10.5722 52.4477 9.61118 51.4514C8.6149 50.4785 7.85303 49.3064 7.37229 48.0056C6.96205 46.9507 6.46986 45.3565 6.3412 42.4381C6.20019 39.2734 6.16539 38.3238 6.16539 30.3183C6.16539 22.3127 6.20019 21.3517 6.3412 18.1989C6.46986 15.2686 6.96205 13.6863 7.37229 12.6314C7.85303 11.3302 8.6149 10.1466 9.62309 9.18515C10.5956 8.18886 11.7677 7.42699 13.0689 6.9467C14.1238 6.53647 15.718 6.04428 18.6364 5.91516C21.801 5.7746 22.7506 5.73935 30.7557 5.73935C38.7732 5.73935 39.7223 5.7746 42.8755 5.91516C45.8058 6.04428 47.3881 6.53647 48.443 6.9467C49.7438 7.42699 50.9278 8.18886 51.8888 9.18515C52.8851 10.1581 53.647 11.3302 54.1277 12.6314C54.5379 13.6863 55.0301 15.2801 55.1592 18.1989C55.2998 21.3636 55.3351 22.3127 55.3351 30.3183C55.3351 38.3238 55.2998 39.2615 55.1592 42.4262Z" fill="#3F729B"/>
<path d="M30.7335 14.8828C22.2243 14.8828 15.3203 21.7863 15.3203 30.296C15.3203 38.8056 22.2243 45.7092 30.7335 45.7092C39.2431 45.7092 46.1466 38.8056 46.1466 30.296C46.1466 21.7863 39.2431 14.8828 30.7335 14.8828ZM30.7335 40.2941C25.2131 40.2941 20.7353 35.8168 20.7353 30.296C20.7353 24.7752 25.2131 20.2978 30.7335 20.2978C36.2543 20.2978 40.7316 24.7752 40.7316 30.296C40.7316 35.8168 36.2543 40.2941 30.7335 40.2941Z" fill="#3F729B"/>
<path d="M50.3533 14.2741C50.3533 16.2612 48.7421 17.8723 46.7545 17.8723C44.7674 17.8723 43.1562 16.2612 43.1562 14.2741C43.1562 12.2865 44.7674 10.6758 46.7545 10.6758C48.7421 10.6758 50.3533 12.2865 50.3533 14.2741Z" fill="#3F729B"/>
</g>
<defs>
<clipPath id="clip0_916_599">
<rect width="60" height="60" fill="white" transform="translate(0.625 0.289062)"/>
</clipPath>
</defs>
</svg>
