<svg width="37" height="37" viewBox="0 0 37 37" fill="none" xmlns="http://www.w3.org/2000/svg">
<g clip-path="url(#clip0_916_727)">
<path d="M11.842 17.0544C10.9307 16.7921 10.0194 16.6589 9.13297 16.6589C7.7641 16.6589 6.62188 16.9718 5.7362 17.3548C6.59005 14.2289 8.64123 8.83528 12.7273 8.22788C13.1057 8.1716 13.4158 7.89798 13.519 7.52965L14.4121 4.33545C14.4874 4.06532 14.4427 3.77617 14.2887 3.54175C14.1346 3.30733 13.887 3.15092 13.6095 3.11288C13.3079 3.07174 13.0005 3.05078 12.6959 3.05078C7.79127 3.05078 2.93403 8.17005 0.884401 15.5C-0.31875 19.8004 -0.671545 26.2656 2.29209 30.335C3.9505 32.6121 6.36999 33.8281 9.48344 33.9496C9.49625 33.95 9.50867 33.9503 9.52147 33.9503C13.363 33.9503 16.7695 31.3632 17.8057 27.6594C18.4248 25.4451 18.145 23.123 17.0171 21.1192C15.9013 19.1379 14.0636 17.6937 11.842 17.0544Z" fill="#E94E1B"/>
<path d="M35.8918 21.1196C34.7759 19.1379 32.9382 17.6937 30.7167 17.0544C29.8054 16.7921 28.8941 16.6589 28.008 16.6589C26.6391 16.6589 25.4965 16.9718 24.6109 17.3548C25.4647 14.229 27.5159 8.83528 31.6023 8.22788C31.9807 8.1716 32.2905 7.89798 32.3941 7.52966L33.2871 4.33545C33.3624 4.06532 33.3178 3.77617 33.1637 3.54175C33.01 3.30733 32.7624 3.15092 32.4845 3.11288C32.1833 3.07174 31.8759 3.05078 31.5709 3.05078C26.6663 3.05078 21.8091 8.17005 19.7591 15.5C18.5563 19.8004 18.2035 26.2656 21.1675 30.3358C22.8255 32.6125 25.2454 33.8289 28.3585 33.95C28.3713 33.9504 28.3837 33.9507 28.3969 33.9507C32.2381 33.9507 35.6449 31.3636 36.6812 27.6597C37.2994 25.4455 37.0192 23.123 35.8918 21.1196Z" fill="#E94E1B"/>
</g>
<defs>
<clipPath id="clip0_916_727">
<rect width="37" height="37" fill="white"/>
</clipPath>
</defs>
</svg>
