<svg width="61" height="61" viewBox="0 0 61 61" fill="none" xmlns="http://www.w3.org/2000/svg">
<g clip-path="url(#clip0_916_607)">
<path d="M60.1061 60.9361V60.9336H60.1211V38.9286C60.1211 28.1636 57.8036 19.8711 45.2187 19.8711C39.1687 19.8711 35.1087 23.1911 33.4512 26.3386H33.2762V20.8761H21.3438V60.9336H33.7687V41.0986C33.7687 35.8761 34.7587 30.8261 41.2262 30.8261C47.5987 30.8261 47.6937 36.7861 47.6937 41.4336V60.9361H60.1061Z" fill="white"/>
<path d="M1.11719 20.875H13.5572V60.9325H1.11719V20.875Z" fill="white"/>
<path d="M7.33 0.933594C3.3525 0.933594 0.125 4.16109 0.125 8.13859C0.125 12.1161 3.3525 15.4111 7.33 15.4111C11.3075 15.4111 14.535 12.1161 14.535 8.13859C14.5325 4.16109 11.305 0.933594 7.33 0.933594V0.933594Z" fill="white"/>
</g>
<defs>
<clipPath id="clip0_916_607">
<rect width="60" height="60" fill="white" transform="translate(0.125 0.933594)"/>
</clipPath>
</defs>
</svg>
