<svg width="34" height="41" viewBox="0 0 34 41" fill="none" xmlns="http://www.w3.org/2000/svg">
<path d="M10.0182 29.3099L21.7682 20.4974L10.0182 11.6849V29.3099ZM13.9349 0.914062C3.1249 0.914062 -5.64844 9.6874 -5.64844 20.4974C-5.64844 31.3074 3.1249 40.0807 13.9349 40.0807C24.7449 40.0807 33.5182 31.3074 33.5182 20.4974C33.5182 9.6874 24.7449 0.914062 13.9349 0.914062ZM13.9349 36.1641C5.29865 36.1641 -1.73177 29.1336 -1.73177 20.4974C-1.73177 11.8611 5.29865 4.83073 13.9349 4.83073C22.5711 4.83073 29.6016 11.8611 29.6016 20.4974C29.6016 29.1336 22.5711 36.1641 13.9349 36.1641Z" fill="#C4C4C4"/>
</svg>
