<svg width="22" height="23" viewBox="0 0 22 23" fill="none" xmlns="http://www.w3.org/2000/svg">
<g clip-path="url(#clip0_916_576)">
<path d="M21.4761 0.191984C21.302 0.00656139 21.0409 -0.0504547 20.8125 0.0468877L1.04301 8.47033C0.816806 8.56671 0.665336 8.79617 0.65664 9.05556C0.647986 9.31491 0.78383 9.55525 1.00302 9.6685L8.79876 13.6959L12.5797 22.0001C12.6828 22.2266 12.8981 22.3695 13.1331 22.3695C13.1404 22.3695 13.1477 22.3694 13.1551 22.3691C13.3985 22.3598 13.614 22.1985 13.7044 21.9575L21.6122 0.898809C21.7036 0.655365 21.6501 0.377363 21.4761 0.191984ZM2.79289 9.13643L18.4865 2.44965L9.13378 12.4123L2.79289 9.13643ZM13.0791 20.0935L10.0038 13.339L19.3566 3.37641L13.0791 20.0935Z" fill="white"/>
</g>
<defs>
<clipPath id="clip0_916_576">
<rect width="21" height="22.3696" fill="white" transform="translate(0.65625)"/>
</clipPath>
</defs>
</svg>
